<?xml version="1.0" encoding="UTF-8" standalone="no"?>
<!-- Generator: Adobe Illustrator 15.0.0, SVG Export Plug-In . SVG Version: 6.00 Build 0)  -->

<svg
   xmlns:dc="http://purl.org/dc/elements/1.1/"
   xmlns:cc="http://creativecommons.org/ns#"
   xmlns:rdf="http://www.w3.org/1999/02/22-rdf-syntax-ns#"
   xmlns:svg="http://www.w3.org/2000/svg"
   xmlns="http://www.w3.org/2000/svg"
   xmlns:sodipodi="http://sodipodi.sourceforge.net/DTD/sodipodi-0.dtd"
   xmlns:inkscape="http://www.inkscape.org/namespaces/inkscape"
   version="1.1"
   id="Layer_1"
   x="0px"
   y="0px"
   width="256"
   height="256"
   viewBox="0 0 256 256"
   enable-background="new 0 0 64 64"
   xml:space="preserve"
   inkscape:version="0.48.4 r9939"
   sodipodi:docname="download.svg"
   inkscape:export-filename="/home/iktwo/devel/musicgear/resources/images/drawable-xxxhdpi/download.png"
   inkscape:export-xdpi="67.5"
   inkscape:export-ydpi="67.5"><metadata
     id="metadata13"><rdf:RDF><cc:Work
         rdf:about=""><dc:format>image/svg+xml</dc:format><dc:type
           rdf:resource="http://purl.org/dc/dcmitype/StillImage" /><dc:title></dc:title></cc:Work></rdf:RDF></metadata><defs
     id="defs11" /><sodipodi:namedview
     pagecolor="#ffffff"
     bordercolor="#666666"
     borderopacity="1"
     objecttolerance="10"
     gridtolerance="10"
     guidetolerance="10"
     inkscape:pageopacity="0"
     inkscape:pageshadow="2"
     inkscape:window-width="1201"
     inkscape:window-height="1132"
     id="namedview9"
     showgrid="false"
     inkscape:zoom="1.3037281"
     inkscape:cx="-99.49979"
     inkscape:cy="-26.232491"
     inkscape:window-x="484"
     inkscape:window-y="200"
     inkscape:window-maximized="0"
     inkscape:current-layer="Layer_1" /><path
     d="M 8,239.37012 8,248 l 240,0 0,-8.62988 -240,0 z"
     id="path5"
     inkscape:connector-curvature="0" /><path
     inkscape:connector-curvature="0"
     id="path7"
     d="m 122.61436,219.33213 c 1.08558,1.09034 2.52826,1.64741 3.97093,1.64741 0.0333,0 0.0571,-0.0238 0.0952,-0.0238 0.0381,0 0.0667,0.0238 0.0952,0.0238 1.45696,0 2.89964,-0.57136 3.97569,-1.64741 l 31.43902,-31.42944 c 2.19973,-2.20449 2.19973,-5.76595 0,-7.96568 -2.20449,-2.19496 -5.76119,-2.19496 -7.96568,0 l -21.81158,21.82111 V 49.29131 c 0,-3.10438 -2.51873,-5.62788 -5.63739,-5.62788 -3.09962,0 -5.63264,2.5235 -5.63264,5.62788 v 152.65726 l -22.002031,-22.0068 c -2.199727,-2.19496 -5.761191,-2.19496 -7.960918,0 -2.199727,2.19973 -2.199727,5.76119 0,7.96568 l 31.434199,31.42468 z" /></svg>