<?xml version="1.0" encoding="UTF-8" standalone="no"?>
<!-- Created with Inkscape (http://www.inkscape.org/) -->

<svg
   xmlns:dc="http://purl.org/dc/elements/1.1/"
   xmlns:cc="http://creativecommons.org/ns#"
   xmlns:rdf="http://www.w3.org/1999/02/22-rdf-syntax-ns#"
   xmlns:svg="http://www.w3.org/2000/svg"
   xmlns="http://www.w3.org/2000/svg"
   xmlns:sodipodi="http://sodipodi.sourceforge.net/DTD/sodipodi-0.dtd"
   xmlns:inkscape="http://www.inkscape.org/namespaces/inkscape"
   width="256"
   height="256"
   id="svg3778"
   version="1.1"
   inkscape:version="0.48.4 r9939"
   sodipodi:docname="help.svg"
   inkscape:export-filename="/home/iktwo/devel/musicgear/resources/images/drawable-xxxhdpi/help.png"
   inkscape:export-xdpi="67.5"
   inkscape:export-ydpi="67.5">
  <defs
     id="defs3780" />
  <sodipodi:namedview
     id="base"
     pagecolor="#ffffff"
     bordercolor="#666666"
     borderopacity="1.0"
     inkscape:pageopacity="0.0"
     inkscape:pageshadow="2"
     inkscape:zoom="0.98994949"
     inkscape:cx="120.68897"
     inkscape:cy="221.96144"
     inkscape:document-units="px"
     inkscape:current-layer="layer1"
     showgrid="false"
     fit-margin-top="0"
     fit-margin-left="0"
     fit-margin-right="0"
     fit-margin-bottom="0"
     inkscape:window-width="1005"
     inkscape:window-height="816"
     inkscape:window-x="742"
     inkscape:window-y="257"
     inkscape:window-maximized="0" />
  <metadata
     id="metadata3783">
    <rdf:RDF>
      <cc:Work
         rdf:about="">
        <dc:format>image/svg+xml</dc:format>
        <dc:type
           rdf:resource="http://purl.org/dc/dcmitype/StillImage" />
        <dc:title></dc:title>
      </cc:Work>
    </rdf:RDF>
  </metadata>
  <g
     inkscape:label="Layer 1"
     inkscape:groupmode="layer"
     id="layer1"
     transform="translate(-459.31514,40.096317)">
    <path
       inkscape:connector-curvature="0"
       d="m 587.31514,-32.091996 c -66.17263,0 -120,53.831695 -120,120 0,66.172626 53.83169,119.995676 120,119.995676 66.16831,0 120,-53.81873 120,-119.995676 0,-66.168305 -53.83169,-120 -120,-120 z m 0,229.231926 c -60.22686,0 -109.23193,-49.00075 -109.23193,-109.231926 0,-60.231176 49.00507,-109.227611 109.23193,-109.227611 60.22253,0 109.23193,48.996435 109.23193,109.22329 0,60.235497 -49.0094,109.236247 -109.23193,109.236247 z"
       id="path5"
       style="fill:#ffffff;fill-opacity:1" />
    <path
       inkscape:connector-curvature="0"
       d="m 588.19231,14.108717 c -10.08966,0 -20.96575,2.774117 -27.93993,7.021713 l 3.15005,8.296425 c 5.82478,-3.296965 13.59403,-5.32786 20.81884,-5.32786 14.97245,0.2463 23.88246,8.434698 23.88246,21.912066 0,10.958194 -5.90688,20.075619 -16.12617,32.114076 -9.93843,11.921789 -14.31133,24.012093 -12.99773,35.925243 l 0.2463,3.12412 h 11.42486 l -0.0951,-2.68769 c -0.72594,-12.2718 3.23647,-22.594794 13.26132,-34.434483 10.69028,-12.695257 18.26941,-22.750351 18.26941,-36.469698 -0.004,-13.602679 -8.88408,-29.473912 -33.89435,-29.473912 z"
       id="path7"
       style="fill:#ffffff;fill-opacity:1" />
    <path
       inkscape:connector-curvature="0"
       d="m 584.88671,140.02856 c -6.16183,0 -10.28843,4.39883 -10.28843,10.94091 0,6.3217 4.13957,10.73782 10.05941,10.73782 6.16615,0 10.29707,-4.31674 10.29707,-10.73782 0.004,-6.54208 -4.0445,-10.94091 -10.06805,-10.94091 z"
       id="path9"
       style="fill:#ffffff;fill-opacity:1" />
  </g>
</svg>
