<?xml version="1.0" encoding="UTF-8" standalone="no"?>
<!-- Generator: Adobe Illustrator 15.0.0, SVG Export Plug-In . SVG Version: 6.00 Build 0)  -->

<svg
   xmlns:dc="http://purl.org/dc/elements/1.1/"
   xmlns:cc="http://creativecommons.org/ns#"
   xmlns:rdf="http://www.w3.org/1999/02/22-rdf-syntax-ns#"
   xmlns:svg="http://www.w3.org/2000/svg"
   xmlns="http://www.w3.org/2000/svg"
   xmlns:sodipodi="http://sodipodi.sourceforge.net/DTD/sodipodi-0.dtd"
   xmlns:inkscape="http://www.inkscape.org/namespaces/inkscape"
   version="1.1"
   id="Layer_1"
   x="0px"
   y="0px"
   width="256"
   height="256"
   viewBox="0 0 256 256"
   enable-background="new 0 0 64 64"
   xml:space="preserve"
   inkscape:version="0.48.4 r9939"
   sodipodi:docname="settings.svg"><metadata
     id="metadata17"><rdf:RDF><cc:Work
         rdf:about=""><dc:format>image/svg+xml</dc:format><dc:type
           rdf:resource="http://purl.org/dc/dcmitype/StillImage" /></cc:Work></rdf:RDF></metadata><defs
     id="defs15" /><sodipodi:namedview
     pagecolor="#ffffff"
     bordercolor="#666666"
     borderopacity="1"
     objecttolerance="10"
     gridtolerance="10"
     guidetolerance="10"
     inkscape:pageopacity="0"
     inkscape:pageshadow="2"
     inkscape:window-width="922"
     inkscape:window-height="845"
     id="namedview13"
     showgrid="false"
     inkscape:zoom="1.3037281"
     inkscape:cx="6.4921192"
     inkscape:cy="147.66638"
     inkscape:window-x="0"
     inkscape:window-y="27"
     inkscape:window-maximized="0"
     inkscape:current-layer="Layer_1" /><g
     id="g7"
     transform="matrix(4.0224166,0,0,4.0224127,-0.71531975,-2.4689657)"
     style="fill:#ffffff"><g
       id="g9"
       style="fill:#ffffff"><path
         d="m 35.133,60.5 h -6.021 c -0.906,0 -1.222,0.002 -4.309,-7.646 l -2.384,-0.969 c -6.496,2.947 -7.265,2.947 -7.522,2.947 H 14.4 L 13.976,54.468 9.708,50.292 C 9.059,49.644 8.834,49.419 12.174,41.871 l -0.972,-2.3 C 3.36,36.761 3.36,36.435 3.36,35.509 v -5.903 c 0,-0.925 0,-1.217 7.816,-4.239 l 0.972,-2.305 C 8.615,15.629 8.858,15.398 9.555,14.742 l 4.59,-4.5 0.57,-0.018 c 0.693,0 3.264,0.938 7.648,2.789 L 24.74,12.048 C 27.602,4.37 27.953,4.371 28.856,4.371 h 6.021 c 0.902,0 1.219,10e-4 4.306,7.651 l 2.388,0.962 c 6.486,-2.943 7.265,-2.943 7.524,-2.943 h 0.494 l 0.424,0.358 4.268,4.169 c 0.649,0.655 0.871,0.879 -2.469,8.43 l 0.975,2.313 c 7.852,2.798 7.852,3.123 7.852,4.051 v 5.896 c 0,0.903 0,1.221 -7.826,4.245 l -0.966,2.307 c 3.515,7.401 3.283,7.633 2.625,8.296 l -4.625,4.528 -0.573,0.016 c -0.69,0 -3.255,-0.939 -7.633,-2.792 L 39.25,52.824 C 36.38,60.5 36.054,60.5 35.133,60.5 z m -5.395,-2.437 h 4.749 c 0.545,-1.111 1.723,-4.056 2.666,-6.593 l 0.19,-0.505 4.324,-1.746 0.465,0.197 c 2.577,1.099 5.623,2.317 6.81,2.691 l 3.337,-3.264 c -0.424,-1.175 -1.709,-4.05 -2.868,-6.475 l -0.234,-0.493 1.789,-4.271 0.487,-0.188 c 2.603,-1.002 5.619,-2.239 6.746,-2.803 v -4.585 c -1.14,-0.536 -4.144,-1.679 -6.733,-2.597 l -0.507,-0.181 -1.801,-4.275 0.215,-0.482 c 1.108,-2.5 2.34,-5.449 2.735,-6.637 l -3.346,-3.271 c -1.08,0.377 -4.104,1.673 -6.655,2.837 L 41.632,15.64 37.308,13.897 37.115,13.416 C 36.093,10.865 34.823,7.907 34.25,6.812 h -4.745 c -0.548,1.108 -1.722,4.054 -2.663,6.59 l -0.187,0.502 -4.312,1.752 -0.465,-0.199 C 19.295,14.36 16.243,13.144 15.052,12.77 l -3.331,3.266 c 0.418,1.173 1.707,4.046 2.862,6.471 l 0.237,0.494 -1.798,4.269 -0.484,0.187 c -2.599,1.001 -5.61,2.237 -6.737,2.799 v 4.591 c 1.14,0.538 4.141,1.684 6.728,2.606 l 0.503,0.183 1.801,4.261 -0.215,0.481 c -1.108,2.498 -2.339,5.443 -2.735,6.629 l 3.353,3.281 c 1.077,-0.38 4.097,-1.676 6.651,-2.841 l 0.478,-0.219 4.315,1.754 0.193,0.481 c 1.026,2.551 2.292,5.504 2.865,6.6 z m 2.261,-15.804 c -5.521,0 -10.017,-4.407 -10.017,-9.824 0,-5.413 4.495,-9.817 10.017,-9.817 5.518,0 10.003,4.405 10.003,9.817 0,5.417 -4.485,9.824 -10.003,9.824 z m 0,-17.202 c -4.179,0 -7.576,3.31 -7.576,7.378 0,4.071 3.396,7.384 7.576,7.384 4.172,0 7.566,-3.313 7.566,-7.384 -10e-4,-4.068 -3.394,-7.378 -7.566,-7.378 z"
         id="path11"
         inkscape:connector-curvature="0"
         style="fill:#ffffff" /></g></g></svg>